<svg xmlns="http://www.w3.org/2000/svg" xmlns:xlink="http://www.w3.org/1999/xlink" width="1200" height="800" viewBox="0 0 1200 800"><rect width="100%" height="100%" fill="#DDDDDD"/><path d="M314.08 517.25L368.35 517.25L368.35 326.97L443.39 326.97L443.39 282.75L239.04 282.75L239.04 326.97L314.08 326.97ZM644.72 395.31C663.82 385.26 675.88 367.17 675.88 343.72C675.88 307.20 645.73 282.75 587.10 282.75L472.53 282.75L472.53 517.25L593.80 517.25C655.44 517.25 687.60 493.80 687.60 453.26C687.60 423.78 670.85 403.69 644.72 395.31ZM580.40 323.62C606.87 323.62 621.27 332.66 621.27 351.09C621.27 369.51 606.87 378.89 580.40 378.89L526.47 378.89L526.47 323.62ZM589.78 476.38L526.47 476.38L526.47 418.43L589.78 418.43C617.92 418.43 633.00 427.81 633.00 447.57C633.00 467.67 617.92 476.38 589.78 476.38ZM904.01 517.25L960.96 517.25L856.11 282.75L802.51 282.75L697.99 517.25L753.60 517.25L774.37 467L883.24 467ZM791.79 425.79L828.97 336.01L866.16 425.79Z" fill="#999999"/></svg>